HIERARCHY
ROOT Hips
{
    OFFSET 0.000000 0.000000 0.000000
    CHANNELS 6 Xposition Yposition Zposition Zrotation Xrotation Yrotation
    JOINT Spine
    {
        OFFSET -0.000000 0.083210 0.000000
        CHANNELS 3 Zrotation Xrotation Yrotation
        JOINT Spine1
        {
            OFFSET -0.000000 0.256334 0.000000
            CHANNELS 3 Zrotation Xrotation Yrotation
            JOINT Neck
            {
                OFFSET -0.000000 0.275576 0.002912
                CHANNELS 3 Zrotation Xrotation Yrotation
                JOINT Head
                {
                    OFFSET -0.000000 0.157287 0.020295
                    CHANNELS 3 Zrotation Xrotation Yrotation
                    End Site
                    {
                        OFFSET -0.000000 0.202951 0.000000
                    }
                }
            }
            JOINT LeftShoulder
            {
                OFFSET 0.041044 0.235234 -0.000041
                CHANNELS 3 Zrotation Xrotation Yrotation
                JOINT LeftArm
                {
                    OFFSET 0.117964 0.000000 0.000000
                    CHANNELS 3 Zrotation Xrotation Yrotation
                    JOINT LeftForeArm
                    {
                        OFFSET 0.291248 0.000000 0.000000
                        CHANNELS 3 Zrotation Xrotation Yrotation
                        JOINT LeftHand
                        {
                            OFFSET 0.245673 0.000000 0.000000
                            CHANNELS 3 Zrotation Xrotation Yrotation
                            End Site
                            {
                                OFFSET 0.152213 0.000000 0.000000
                            }
                        }
                    }
                }
            }
            JOINT RightShoulder
            {
                OFFSET -0.040052 0.235234 -0.000041
                CHANNELS 3 Zrotation Xrotation Yrotation
                JOINT RightArm
                {
                    OFFSET -0.117964 0.000000 0.000000
                    CHANNELS 3 Zrotation Xrotation Yrotation
                    JOINT RightForeArm
                    {
                        OFFSET -0.291248 0.000000 0.000000
                        CHANNELS 3 Zrotation Xrotation Yrotation
                        JOINT RightHand
                        {
                            OFFSET -0.245673 0.000000 0.000000
                            CHANNELS 3 Zrotation Xrotation Yrotation
                            End Site
                            {
                                OFFSET -0.152213 0.000000 0.000000
                            }
                        }
                    }
                }
            }
        }
    }
    JOINT LeftUpLeg
    {
        OFFSET 0.101475 0.000000 0.000000
        CHANNELS 3 Zrotation Xrotation Yrotation
        JOINT LeftLeg
        {
            OFFSET -0.000000 -0.446535 0.000000
            CHANNELS 3 Zrotation Xrotation Yrotation
            JOINT LeftFoot
            {
                OFFSET -0.000000 -0.400037 0.000000
                CHANNELS 3 Zrotation Xrotation Yrotation
                JOINT LeftToeBase
                {
                    OFFSET -0.000000 -0.065959 0.152213
                    CHANNELS 3 Zrotation Xrotation Yrotation
                    End Site
                    {
                        OFFSET -0.000000 0.000000 0.040590
                    }
                }
            }
        }
    }
    JOINT RightUpLeg
    {
        OFFSET -0.101475 0.000000 0.000000
        CHANNELS 3 Zrotation Xrotation Yrotation
        JOINT RightLeg
        {
            OFFSET -0.000000 -0.446535 0.000000
            CHANNELS 3 Zrotation Xrotation Yrotation
            JOINT RightFoot
            {
                OFFSET -0.000000 -0.400037 0.000000
                CHANNELS 3 Zrotation Xrotation Yrotation
                JOINT RightToeBase
                {
                    OFFSET -0.000000 -0.065959 0.152213
                    CHANNELS 3 Zrotation Xrotation Yrotation
                    End Site
                    {
                        OFFSET -0.000000 0.000000 0.040590
                    }
                }
            }
        }
    }
}
MOTION
Frames:    5
Frame Time:    0.008333
-2.000466    0.866682    2.302413    -12.031691    -1.413414    63.947189    -0.292119    5.918079    3.538486    -0.120350    -0.341596    1.173888    6.949674    -11.289926    6.721919    -10.602779    -9.342103    7.665428    -0.956118    12.683284    -4.477731    -66.423775    45.025608    3.759636    24.238373    -21.089081    -83.864517    13.138390    -1.303601    -18.127407    2.542221    13.454796    14.192451    54.670464    48.814056    3.445644    -17.308281    -19.659653    92.879906    -7.605548    -2.478426    13.825834    -2.535703    -37.998310    0.704047    -6.820119    51.323292    13.054804    2.409117    -11.942359    0.616587    -0.045824    -8.089486    3.005973    -10.227867    4.038798    7.638551    -0.708111    34.605103    4.106885    18.406773    16.057774    -17.712364    -0.022242    -5.204654    -0.313348    
-1.985894    0.863858    2.309116    -11.918756    -1.527336    64.647186    -0.478862    5.837141    3.182357    -0.153959    -0.116062    1.052420    6.967415    -10.862246    6.724442    -10.198860    -9.943056    7.622673    -0.970365    12.442463    -4.883559    -65.601021    45.162457    3.317141    24.387819    -21.637911    -83.784584    13.288680    -1.799955    -18.098221    2.557082    13.589811    14.246033    54.594734    48.846882    3.223139    -17.091995    -19.158304    91.718597    -6.799880    -2.512671    14.690088    -3.007503    -36.964325    -0.657489    -8.253049    51.834991    14.897758    3.385104    -13.441539    0.825340    -0.011280    -9.276362    2.366539    -9.524521    3.349320    7.924342    -1.303225    37.956829    7.801368    18.733801    15.694822    -16.975969    -0.015188    -5.787419    -0.199677    
-1.971367    0.860402    2.315980    -11.721844    -1.655506    65.346703    -0.736436    5.899212    2.756155    -0.155270    0.026549    0.906117    7.008348    -10.378581    6.790749    -9.786146    -10.617161    7.647808    -1.007403    12.065632    -5.168060    -64.784096    45.342449    2.980868    24.281851    -22.177719    -83.913841    13.112377    -2.398494    -18.047510    2.553867    13.831185    14.339752    54.588459    48.846703    2.915090    -16.873579    -18.738159    90.338181    -5.801397    -2.613509    14.920361    -3.432922    -35.823513    -1.439260    -8.744678    52.428162    14.866735    4.384310    -14.870926    1.563123    0.026396    -11.081523    2.348369    -8.857705    2.715739    8.111593    -1.766422    41.181808    9.840987    18.562258    15.914944    -14.888649    -0.016477    -6.118440    -0.208704    
-1.956778    0.856219    2.322771    -11.457463    -1.803170    66.068626    -0.983455    6.042256    2.283495    -0.204121    0.158740    0.744287    7.099190    -9.831834    6.865938    -9.393626    -11.350316    7.689249    -0.991255    11.651256    -5.488076    -63.962376    45.413345    2.670320    24.042120    -22.735321    -84.220306    12.630071    -3.038676    -18.082474    2.525499    14.107927    14.462901    54.774086    48.740158    2.436921    -16.707510    -18.420113    88.577385    -4.485119    -2.824105    15.443377    -3.928998    -34.551319    -1.820426    -8.484649    53.049549    14.567696    5.146640    -16.619051    1.491023    0.040078    -11.389111    2.867093    -8.185373    2.009137    8.199094    -2.301439    44.582428    12.259234    18.786100    15.868295    -13.620324    0.035903    -6.173293    0.452003    
-1.942293    0.851560    2.329617    -11.098445    -1.934711    66.793434    -1.327924    6.313498    1.808782    -0.215284    0.269683    0.579180    7.376030    -9.236121    6.937652    -9.319132    -12.207957    7.742386    -0.887961    11.081620    -5.885849    -63.303207    45.487427    2.495518    23.644953    -23.320951    -84.703300    12.638345    -3.852124    -17.900913    2.467657    14.312565    14.494793    55.160255    48.598732    1.776951    -16.411537    -18.006838    86.692963    -3.392142    -3.064363    15.144978    -4.405929    -33.210121    -1.747428    -7.766304    53.719658    13.997721    5.510491    -18.567253    1.407084    0.026683    -10.933867    2.687521    -7.557115    1.304022    8.720225    -2.222707    48.005245    13.414507    18.790430    15.854745    -12.429099    0.057843    -6.248076    0.722283    
